solid ahmed_body
  facet normal 0 0 0
    outer loop
      vertex 0.15 0.22 0.12
      vertex 0.85 0.22 0.12
      vertex 0.85 0.22 0.27
    endloop
  endfacet
  facet normal 0 0 0
    outer loop
      vertex 0.15 0.22 0.12
      vertex 0.85 0.22 0.27
      vertex 0.73 0.22 0.46
    endloop
  endfacet
  facet normal 0 0 0
    outer loop
      vertex 0.15 0.22 0.12
      vertex 0.73 0.22 0.46
      vertex 0.28 0.22 0.46
    endloop
  endfacet
  facet normal 0 0 0
    outer loop
      vertex 0.15 0.22 0.12
      vertex 0.28 0.22 0.46
      vertex 0.15 0.22 0.36
    endloop
  endfacet
  facet normal 0 0 0
    outer loop
      vertex 0.15 0.78 0.12
      vertex 0.85 0.78 0.27
      vertex 0.85 0.78 0.12
    endloop
  endfacet
  facet normal 0 0 0
    outer loop
      vertex 0.15 0.78 0.12
      vertex 0.73 0.78 0.46
      vertex 0.85 0.78 0.27
    endloop
  endfacet
  facet normal 0 0 0
    outer loop
      vertex 0.15 0.78 0.12
      vertex 0.28 0.78 0.46
      vertex 0.73 0.78 0.46
    endloop
  endfacet
  facet normal 0 0 0
    outer loop
      vertex 0.15 0.78 0.12
      vertex 0.15 0.78 0.36
      vertex 0.28 0.78 0.46
    endloop
  endfacet
  facet normal 0 0 0
    outer loop
      vertex 0.15 0.22 0.12
      vertex 0.85 0.22 0.12
      vertex 0.85 0.78 0.12
    endloop
  endfacet
  facet normal 0 0 0
    outer loop
      vertex 0.15 0.22 0.12
      vertex 0.85 0.78 0.12
      vertex 0.15 0.78 0.12
    endloop
  endfacet
  facet normal 0 0 0
    outer loop
      vertex 0.85 0.22 0.12
      vertex 0.85 0.22 0.27
      vertex 0.85 0.78 0.27
    endloop
  endfacet
  facet normal 0 0 0
    outer loop
      vertex 0.85 0.22 0.12
      vertex 0.85 0.78 0.27
      vertex 0.85 0.78 0.12
    endloop
  endfacet
  facet normal 0 0 0
    outer loop
      vertex 0.85 0.22 0.27
      vertex 0.73 0.22 0.46
      vertex 0.73 0.78 0.46
    endloop
  endfacet
  facet normal 0 0 0
    outer loop
      vertex 0.85 0.22 0.27
      vertex 0.73 0.78 0.46
      vertex 0.85 0.78 0.27
    endloop
  endfacet
  facet normal 0 0 0
    outer loop
      vertex 0.73 0.22 0.46
      vertex 0.28 0.22 0.46
      vertex 0.28 0.78 0.46
    endloop
  endfacet
  facet normal 0 0 0
    outer loop
      vertex 0.73 0.22 0.46
      vertex 0.28 0.78 0.46
      vertex 0.73 0.78 0.46
    endloop
  endfacet
  facet normal 0 0 0
    outer loop
      vertex 0.28 0.22 0.46
      vertex 0.15 0.22 0.36
      vertex 0.15 0.78 0.36
    endloop
  endfacet
  facet normal 0 0 0
    outer loop
      vertex 0.28 0.22 0.46
      vertex 0.15 0.78 0.36
      vertex 0.28 0.78 0.46
    endloop
  endfacet
endsolid ahmed_body
